{
 "cells": [
  {
   "cell_type": "code",
   "execution_count": 14,
   "metadata": {},
   "outputs": [
    {
     "name": "stderr",
     "output_type": "stream",
     "text": [
      "ffmpeg version 6.1.1 Copyright (c) 2000-2023 the FFmpeg developers\n",
      "  built with Apple clang version 15.0.0 (clang-1500.1.0.2.5)\n",
      "  configuration: --prefix=/opt/homebrew/Cellar/ffmpeg/6.1.1_3 --enable-shared --enable-pthreads --enable-version3 --cc=clang --host-cflags= --host-ldflags='-Wl,-ld_classic' --enable-ffplay --enable-gnutls --enable-gpl --enable-libaom --enable-libaribb24 --enable-libbluray --enable-libdav1d --enable-libharfbuzz --enable-libjxl --enable-libmp3lame --enable-libopus --enable-librav1e --enable-librist --enable-librubberband --enable-libsnappy --enable-libsrt --enable-libssh --enable-libsvtav1 --enable-libtesseract --enable-libtheora --enable-libvidstab --enable-libvmaf --enable-libvorbis --enable-libvpx --enable-libwebp --enable-libx264 --enable-libx265 --enable-libxml2 --enable-libxvid --enable-lzma --enable-libfontconfig --enable-libfreetype --enable-frei0r --enable-libass --enable-libopencore-amrnb --enable-libopencore-amrwb --enable-libopenjpeg --enable-libopenvino --enable-libspeex --enable-libsoxr --enable-libzmq --enable-libzimg --disable-libjack --disable-indev=jack --enable-videotoolbox --enable-audiotoolbox --enable-neon\n",
      "  libavutil      58. 29.100 / 58. 29.100\n",
      "  libavcodec     60. 31.102 / 60. 31.102\n",
      "  libavformat    60. 16.100 / 60. 16.100\n",
      "  libavdevice    60.  3.100 / 60.  3.100\n",
      "  libavfilter     9. 12.100 /  9. 12.100\n",
      "  libswscale      7.  5.100 /  7.  5.100\n",
      "  libswresample   4. 12.100 /  4. 12.100\n",
      "  libpostproc    57.  3.100 / 57.  3.100\n",
      "Input #0, mov,mp4,m4a,3gp,3g2,mj2, from './files/video.mov':\n",
      "  Metadata:\n",
      "    major_brand     : qt  \n",
      "    minor_version   : 0\n",
      "    compatible_brands: qt  \n",
      "    creation_time   : 2023-08-12T05:26:34.000000Z\n",
      "    com.apple.quicktime.make: Apple\n",
      "    com.apple.quicktime.model: MacBookAir10,1\n",
      "    com.apple.quicktime.software: macOS 13.5 (22G74)\n",
      "    com.apple.quicktime.creationdate: 2023-08-02T09:36:36+0900\n",
      "  Duration: 00:47:40.02, start: 0.000000, bitrate: 3687 kb/s\n",
      "  Stream #0:0[0x1](und): Audio: aac (LC) (mp4a / 0x6134706D), 48000 Hz, mono, fltp, 129 kb/s (default)\n",
      "    Metadata:\n",
      "      creation_time   : 2023-08-12T05:26:34.000000Z\n",
      "      handler_name    : Core Media Audio\n",
      "      vendor_id       : [0][0][0][0]\n",
      "  Stream #0:1[0x2](und): Video: h264 (Main) (avc1 / 0x31637661), yuv420p(tv, bt709, progressive), 1280x744, 3549 kb/s, 60 fps, 60 tbr, 6k tbn (default)\n",
      "    Metadata:\n",
      "      creation_time   : 2023-08-12T05:26:34.000000Z\n",
      "      handler_name    : Core Media Video\n",
      "      vendor_id       : [0][0][0][0]\n",
      "      encoder         : H.264\n",
      "Stream mapping:\n",
      "  Stream #0:0 -> #0:0 (aac (native) -> mp3 (libmp3lame))\n",
      "Press [q] to stop, [?] for help\n",
      "Output #0, mp3, to './files/audio.mp3':\n",
      "  Metadata:\n",
      "    major_brand     : qt  \n",
      "    minor_version   : 0\n",
      "    compatible_brands: qt  \n",
      "    com.apple.quicktime.creationdate: 2023-08-02T09:36:36+0900\n",
      "    com.apple.quicktime.make: Apple\n",
      "    com.apple.quicktime.model: MacBookAir10,1\n",
      "    com.apple.quicktime.software: macOS 13.5 (22G74)\n",
      "    TSSE            : Lavf60.16.100\n",
      "  Stream #0:0(und): Audio: mp3, 48000 Hz, mono, fltp (default)\n",
      "    Metadata:\n",
      "      creation_time   : 2023-08-12T05:26:34.000000Z\n",
      "      handler_name    : Core Media Audio\n",
      "      vendor_id       : [0][0][0][0]\n",
      "      encoder         : Lavc60.31.102 libmp3lame\n",
      "[out#0/mp3 @ 0x12273ffa0] video:0kB audio:22344kB subtitle:0kB other streams:0kB global headers:0kB muxing overhead: 0.002395%\n",
      "size=   22345kB time=00:47:39.98 bitrate=  64.0kbits/s speed= 134x    \n"
     ]
    }
   ],
   "source": [
    "import subprocess\n",
    "\n",
    "def extract_audio_from_video(video_path, audio_path):\n",
    "    command = [\"/opt/homebrew/bin/ffmpeg\", \"-i\", video_path, \"-vn\", audio_path, \"-y\"]\n",
    "    # result = subprocess.run(command, stdout=subprocess.PIPE, stderr=subprocess.PIPE)\n",
    "    # if result.returncode == 0:\n",
    "    #     print(\"Audio extracted successfully.\")\n",
    "    # else:\n",
    "    #     print(\"Error in extracting audio.\")\n",
    "    #     print(result.stderr.decode())\n",
    "    subprocess.run(command)\n",
    "\n",
    "extract_audio_from_video(\"./files/video.mov\", \"./files/audio.mp3\")\n",
    "\n"
   ]
  },
  {
   "cell_type": "code",
   "execution_count": 7,
   "metadata": {},
   "outputs": [],
   "source": [
    "from pydub import AudioSegment\n",
    "import os\n",
    "# ffmpeg와 ffprobe의 경로를 환경 번수에 설정\n",
    "\n",
    "os.environ[\"PATH\"] += os.pathsep + \"/opt/homebrew/bin\"\n",
    "\n",
    "track = AudioSegment.from_mp3(\"./files/audio.mp3\")\n",
    "track.duration_seconds\n",
    "ten_minutes = 10 * 60 * 1000  # 10분 * 60초 * 1000\n"
   ]
  },
  {
   "cell_type": "code",
   "execution_count": 12,
   "metadata": {},
   "outputs": [],
   "source": [
    "#/opt/homebrew/bin/ffmpeg\n",
    "import math\n",
    "\n",
    "#math.ceil = 반올림 / math.floor = 버림\n",
    "chunks = math.ceil(len(track) / ten_minutes) #10분씩 쪼갰을때 생성되는 파일의 갯수 \n",
    "\n",
    "for i in range(chunks):\n",
    "    start_time = i * ten_minutes\n",
    "    end_time = (i+1) * ten_minutes\n",
    "    chunk = track[start_time:end_time]\n",
    "    chunk.export(f\"./files/chunks/chunk_{i}.mp3\", format=\"mp3\")\n"
   ]
  },
  {
   "cell_type": "code",
   "execution_count": null,
   "metadata": {},
   "outputs": [],
   "source": []
  }
 ],
 "metadata": {
  "kernelspec": {
   "display_name": "env",
   "language": "python",
   "name": "python3"
  },
  "language_info": {
   "codemirror_mode": {
    "name": "ipython",
    "version": 3
   },
   "file_extension": ".py",
   "mimetype": "text/x-python",
   "name": "python",
   "nbconvert_exporter": "python",
   "pygments_lexer": "ipython3",
   "version": "3.11.6"
  }
 },
 "nbformat": 4,
 "nbformat_minor": 2
}
